<svg xmlns="http://www.w3.org/2000/svg" viewBox="0 0 32 32">
  <defs>
    <linearGradient id="g" x1="0%" y1="0%" x2="100%" y2="100%">
      <stop offset="0%" style="stop-color:#4B0082"/>
      <stop offset="100%" style="stop-color:#FF6600"/>
    </linearGradient>
  </defs>
  <rect width="32" height="32" rx="8" fill="url(#g)"/>
  <path d="M8 22V10h8.5c1.8 0 3 .4 3.7 1.1.7.7 1 1.6 1 2.6 0 1.1-.4 2-1.1 2.7-.8.7-2 1-3.6 1H11.2v4.6H8zm3.2-7.1h5c.8 0 1.4-.2 1.8-.5.4-.3.6-.8.6-1.4s-.2-1.1-.6-1.4c-.4-.3-1-.5-1.8-.5h-5v3.8z" fill="#FFFFFF"/>
</svg>
